<?xml version="1.0" encoding="utf-8"?>
<!-- Generator: Adobe Illustrator 23.0.3, SVG Export Plug-In . SVG Version: 6.00 Build 0)  -->
<svg version="1.1" id="Layer_1" xmlns="http://www.w3.org/2000/svg" xmlns:xlink="http://www.w3.org/1999/xlink" x="0px" y="0px"
	 viewBox="0 0 612 792" style="enable-background:new 0 0 612 792;" xml:space="preserve">
<style type="text/css">
	.st0{fill:#31ADB8;}
	.st1{fill:#31ADB8;stroke:#000000;stroke-miterlimit:10;}
	.st2{font-family:'MaturaMTScriptCapitals';}
	.st3{font-size:48px;}
	.st4{font-size:21px;}
</style>
<g>
	<rect x="150.44" y="106.66" class="st0" width="12.33" height="42.44"/>
	<rect x="93.01" y="147.62" class="st0" width="12.33" height="85.99"/>
	
		<rect x="98.84" y="106.93" transform="matrix(0.7722 0.6354 -0.6354 0.7722 114.37 -34.2888)" class="st0" width="12.33" height="70.86"/>
	
		<rect x="138.5" y="104.49" transform="matrix(-0.6752 0.7376 -0.7376 -0.6752 345.5528 127.6926)" class="st0" width="12.33" height="70.86"/>
	
		<rect x="222.3" y="91.99" transform="matrix(-1.836970e-16 1 -1 -1.836970e-16 455.9018 -1.021)" class="st0" width="12.33" height="270.9"/>
	<g>
		<rect x="116.98" y="153.7" class="st1" width="8.53" height="8.53"/>
		<rect x="131.55" y="153.7" class="st1" width="8.53" height="8.53"/>
		<rect x="116.98" y="166.5" class="st1" width="8.53" height="8.53"/>
		<rect x="131.55" y="166.5" class="st1" width="8.53" height="8.53"/>
	</g>
	<text transform="matrix(1.0689 0 0 1 116.5176 209.0518)" class="st2 st3">Jameslaw</text>
	<text transform="matrix(1 0 0 1 175.4944 252.8707)" class="st2 st4">Real Estate Agency</text>
</g>
</svg>
